<?xml version="1.0" encoding="UTF-8"?><svg version="1.1" width="20px" height="20px" viewBox="0 0 20.0 20.0" xmlns="http://www.w3.org/2000/svg" xmlns:xlink="http://www.w3.org/1999/xlink"><defs><clipPath id="i0"><path d="M1440,0 L1440,2249 L0,2249 L0,0 L1440,0 Z"></path></clipPath><clipPath id="i1"><path d="M9.99998571,0 C15.5228393,0 20,4.47713619 20,10 C20,15.5228532 15.5228393,19.9999894 9.99998571,19.9999894 C4.47716074,19.9999894 0,15.5228532 0,10 C0,4.47713619 4.47716074,0 9.99998571,0 Z"></path></clipPath><clipPath id="i2"><path d="M8.70012405,0 L9.98465957,1.28453668 L3.83959145,7.42720307 L0,3.58760816 L1.28453552,2.30307149 L3.84079508,4.85933334 L8.70012405,0 Z"></path></clipPath></defs><g transform="translate(-182.0 -394.0)"><g clip-path="url(#i0)"><g transform="translate(121.0 200.0)"><g transform="translate(41.0 0.0)"><g transform="translate(0.0 105.0)"><g transform="translate(0.0 69.0)"><g transform="translate(20.0 6.0)"><g transform="translate(0.0 13.999999243650336)"><g clip-path="url(#i1)"><polygon points="0,0 20,0 20,19.9999894 0,19.9999894 0,0" stroke="none" fill="#D8D8D8"></polygon></g><g transform="translate(4.976219682066738 6.9496957301949545)"><g clip-path="url(#i2)"><polygon points="0,0 9.98465957,0 9.98465957,7.42720307 0,7.42720307 0,0" stroke="none" fill="#F4F1EA"></polygon></g></g></g></g></g></g></g></g></g></g></svg>