<?xml version="1.0" encoding="UTF-8"?><svg version="1.1" width="37px" height="37px" viewBox="0 0 37.0 37.0" xmlns="http://www.w3.org/2000/svg" xmlns:xlink="http://www.w3.org/1999/xlink"><defs><clipPath id="i0"><path d="M640,0 L640,266 L0,266 L0,0 L640,0 Z"></path></clipPath><clipPath id="i1"><path d="M17.4999834,0 C22.1744667,0 26.5691088,1.82031517 29.8743997,5.12564286 C33.1796905,8.43097056 35,12.8256063 35,17.4999585 C35,22.1743937 33.1796905,26.5690294 29.8743997,29.8743571 C26.5690257,33.1796433 22.1743837,35 17.4999834,35 C12.8256246,35 8.43098256,33.1796433 5.12556713,29.8743571 C1.82027625,26.5690294 0,22.1743937 0,17.4999585 C0,12.8256063 1.82027625,8.43097056 5.12556713,5.12564286 C8.43094104,1.82031517 12.8255416,0 17.4999834,0 Z M17.4999834,1.34922263 C13.1859187,1.34922263 9.13010845,3.02922297 6.07966786,6.07965921 C3.02918576,9.13017848 1.34922455,13.185983 1.34922455,17.4999585 C1.34922455,21.8139755 3.02918576,25.8698215 6.07966786,28.9202993 C9.13019148,31.9708185 13.1860018,33.6507774 17.4999834,33.6507774 C21.8140481,33.6507774 25.8698583,31.9708185 28.9202989,28.9202993 C31.9708225,25.8698215 33.6507837,21.814017 33.6507837,17.4999585 C33.6507837,13.185983 31.9708225,9.13017848 28.9202989,6.07965921 C25.8698999,3.02922297 21.8140896,1.34922263 17.4999834,1.34922263 Z"></path></clipPath><clipPath id="i2"><path d="M5.82052186,0.000186200109 L5.98471904,0.0101665222 C7.11952728,0.132298549 7.97154675,1.20848844 7.88399515,2.40917661 C7.82475563,3.22208937 7.11595713,4.12334236 6.21860511,5.26437597 C5.8465627,5.73737811 5.42495338,6.27352193 5.01359785,6.85117902 C4.91496219,6.9900824 4.76040808,7.0645572 4.60319712,7.0645572 C4.51066392,7.0645572 4.41721743,7.03873595 4.33381716,6.98514233 C4.08025378,6.82307454 3.84690738,6.6752458 3.62298451,6.53331195 C1.78390273,5.36782702 0.568932262,4.59783898 0.17829188,3.65855984 C-0.28412504,2.54704216 0.184145259,1.25676836 1.22222745,0.782313256 C1.74392539,0.54386106 2.38476658,0.541245725 2.98035825,0.774923895 C3.295818,0.898716452 3.57433089,1.08262022 3.79684231,1.30865995 C4.21301339,0.488897497 5.10970119,-0.084234643 5.98471904,0.0101665222 Z"></path></clipPath><clipPath id="i3"><path d="M1.90538579,0.0101891899 C2.78044515,-0.0843365152 3.67717447,0.488961678 4.09326252,1.30868261 C4.31573242,1.0826844 4.59428683,0.89873912 4.90970507,0.774988076 C5.50533825,0.541226879 6.14617943,0.543883728 6.66787738,0.782335924 C7.70587654,1.25674952 8.17422987,2.54702332 7.71189598,3.65854099 C7.32108954,4.59794467 6.10591151,5.36801575 4.26653913,6.53370823 C4.04282383,6.67551755 3.80964349,6.82322175 3.56774535,6.97781715 C3.47479701,7.03755473 3.37931637,7.06399868 3.28528869,7.06399868 C3.12811924,7.06399868 2.97514264,6.99010507 2.87804297,6.85327735 C2.46515145,6.27350309 2.04354213,5.73740078 1.67149972,5.26439863 C0.774147697,4.12336503 0.0653491965,3.22211204 0.00619270933,2.40919928 C-0.0814004051,1.20851111 0.770577551,0.132321216 1.90538579,0.0101891899 Z"></path></clipPath><clipPath id="i4"><path d="M17.7313756,0.112972753 C18.0416047,0.319293681 18.1257937,0.738037988 17.919431,1.04826662 C17.7924417,1.23926915 14.7522964,5.729593 9.85252028,6.08075371 C9.65089006,6.09515882 9.44905228,6.10242364 9.24758811,6.10242364 C6.18050068,6.10242364 3.13051674,4.43043537 0.171945143,1.124568 C-0.0765536166,0.846927283 -0.0528910217,0.420419995 0.224708578,0.17192159 C0.502349692,-0.0764522766 0.928899099,-0.0527897154 1.17727332,0.224767976 C4.03729229,3.42041762 6.92379676,4.93826714 9.75604331,4.73493517 C14.0027319,4.43064293 16.7685571,0.34229203 16.7960389,0.301069358 C17.0024432,-0.00924230009 17.4212711,-0.0933066623 17.7313756,0.112972753 Z"></path></clipPath></defs><g transform="translate(-487.0 -80.0)"><g clip-path="url(#i0)"><g transform="translate(488.0 81.0)"><g clip-path="url(#i1)"><polygon points="0,0 35,0 35,35 0,35 0,0" stroke="none" fill="#888675"></polygon></g><path d="M17.4999834,1.34922263 C13.1859187,1.34922263 9.13010845,3.02922297 6.07966786,6.07965921 C3.02918576,9.13017848 1.34922455,13.185983 1.34922455,17.4999585 C1.34922455,21.8139755 3.02918576,25.8698215 6.07966786,28.9202993 C9.13019148,31.9708185 13.1860018,33.6507774 17.4999834,33.6507774 C21.8140481,33.6507774 25.8698583,31.9708185 28.9202989,28.9202993 C31.9708225,25.8698215 33.6507837,21.814017 33.6507837,17.4999585 C33.6507837,13.185983 31.9708225,9.13017848 28.9202989,6.07965921 C25.8698999,3.02922297 21.8140896,1.34922263 17.4999834,1.34922263 M17.4999834,35 C12.8256246,35 8.43098256,33.1796433 5.12556713,29.8743571 C1.82027625,26.5690294 0,22.1743937 0,17.4999585 C0,12.8256063 1.82027625,8.43097056 5.12556713,5.12564286 C8.43094104,1.82031517 12.8255416,0 17.4999834,0 C22.1744667,0 26.5691088,1.82031517 29.8743997,5.12564286 C33.1796905,8.43097056 35,12.8256063 35,17.4999585 C35,22.1743937 33.1796905,26.5690294 29.8743997,29.8743571 C26.5690257,33.1796433 22.1743837,35 17.4999834,35" stroke="#898775" stroke-width="0.5" fill="none" stroke-miterlimit="10"></path><g transform="translate(7.714993494105932 10.47908569343811)"><g clip-path="url(#i2)"><polygon points="-2.22044605e-16,2.06952511e-15 7.89018196,2.06952511e-15 7.89018196,7.0645572 -2.22044605e-16,7.0645572 -2.22044605e-16,2.06952511e-15" stroke="none" fill="#888675"></polygon></g></g><g transform="translate(19.39490997945733 10.47906717709519)"><g clip-path="url(#i3)"><polygon points="0,-2.22044605e-16 7.89012565,-2.22044605e-16 7.89012565,7.06399868 0,7.06399868 0,-2.22044605e-16" stroke="none" fill="#888675"></polygon></g></g><g transform="translate(8.483836216078469 21.793751684462194)"><g clip-path="url(#i4)"><polygon points="3.88578059e-16,4.4408921e-16 18.0324318,4.4408921e-16 18.0324318,6.10242364 3.88578059e-16,6.10242364 3.88578059e-16,4.4408921e-16" stroke="none" fill="#888675"></polygon></g><path d="M9.24758811,6.10242364 C6.18050068,6.10242364 3.13051674,4.43043537 0.171945143,1.124568 C-0.0765536166,0.846927283 -0.0528910217,0.420419995 0.224708578,0.17192159 C0.502349692,-0.0764522766 0.928899099,-0.0527897154 1.17727332,0.224767976 C4.03729229,3.42041762 6.92379676,4.93826714 9.75604331,4.73493517 C14.0027319,4.43064293 16.7685571,0.34229203 16.7960389,0.301069358 C17.0024432,-0.00924230009 17.4212711,-0.0933066623 17.7313756,0.112972753 C18.0416047,0.319293681 18.1257937,0.738037988 17.919431,1.04826662 C17.7924417,1.23926915 14.7522964,5.729593 9.85252028,6.08075371 C9.65089006,6.09515882 9.44905228,6.10242364 9.24758811,6.10242364" stroke="#898775" stroke-width="0.3" fill="none" stroke-miterlimit="10"></path></g></g></g></g></svg>