<?xml version="1.0" encoding="UTF-8"?><svg version="1.1" width="35px" height="35px" viewBox="0 0 35.0 35.0" xmlns="http://www.w3.org/2000/svg" xmlns:xlink="http://www.w3.org/1999/xlink"><defs><clipPath id="i0"><path d="M640,0 L640,266 L0,266 L0,0 L640,0 Z"></path></clipPath><clipPath id="i1"><path d="M2.70068067,0 C4.19224534,0 5.40141912,1.20912379 5.40141912,2.70069806 C5.40141912,4.19227233 4.19224534,5.40145389 2.70068067,5.40145389 C1.209116,5.40145389 0,4.19227233 0,2.70069806 C0,1.20912379 1.209116,0 2.70068067,0 Z"></path></clipPath><clipPath id="i2"><path d="M2.70068067,0 C4.19224534,0 5.40141912,1.20912379 5.40141912,2.70069806 C5.40141912,4.19227233 4.19224534,5.40145389 2.70068067,5.40145389 C1.209116,5.40145389 0,4.19227233 0,2.70069806 C0,1.20912379 1.209116,0 2.70068067,0 Z"></path></clipPath><clipPath id="i3"><path d="M35,0 L35,35 L0,35 L0,0 L35,0 Z"></path></clipPath><clipPath id="i4"><path d="M17.4999162,0 C27.149562,0 35,7.85037874 35,17.4999133 C35,27.1495057 27.149562,35 17.4999162,35 C7.85050152,35 0,27.1495057 0,17.4999133 C0,7.85037874 7.85050152,0 17.4999162,0 Z M17.4999162,2.52709125 C9.24385332,2.52709125 2.52707498,9.24391283 2.52707498,17.4999133 C2.52707498,25.7560294 9.24385332,32.4729088 17.4999162,32.4729088 C25.7560947,32.4729088 32.4729308,25.7560294 32.4729308,17.4999133 C32.4729308,9.24391283 25.7560947,2.52709125 17.4999162,2.52709125 Z"></path></clipPath><clipPath id="i5"><path d="M2.23938896,0.460962409 C2.65061204,0.960869148 3.20568808,1.39630161 3.84482279,1.72005954 C6.27709346,2.95229239 9.66405102,2.37525916 11.2405409,0.460500228 C11.6841165,-0.0781719585 12.4803918,-0.155529537 13.0191183,0.288106641 C13.5579026,0.731685046 13.6350285,1.52802325 13.1915108,2.06669544 C11.6740641,3.90981628 9.21845344,4.91263394 6.71934025,4.91263394 C5.34395563,4.91263394 3.95551448,4.60898089 2.7027804,3.97434833 C1.7541596,3.49379543 0.919119097,2.83391623 0.287725872,2.06623326 C-0.155560816,1.52715666 -0.0780304192,0.730934001 0.460927161,0.28764446 C0.999942513,-0.155645082 1.79616005,-0.0778830953 2.23938896,0.460962409 Z"></path></clipPath></defs><g transform="translate(-318.0 -137.0)"><g clip-path="url(#i0)"><g transform="translate(318.0 137.0)"><g transform="translate(7.441791541445252 11.00676435196418)"><g clip-path="url(#i1)"><polygon points="0,0 5.40141912,0 5.40141912,5.40145389 0,5.40145389 0,0" stroke="none" fill="#FFFFFF"></polygon></g></g><g transform="translate(22.15688177596605 11.00676435196418)"><g clip-path="url(#i2)"><polygon points="0,0 5.40141912,0 5.40141912,5.40145389 0,5.40145389 0,0" stroke="none" fill="#FFFFFF"></polygon></g></g><g clip-path="url(#i3)"><g transform="translate(-5.777228579972871e-06 0.0)"><g clip-path="url(#i4)"><polygon points="5.77722858e-06,0 35,0 35,35 5.77722858e-06,35 5.77722858e-06,0" stroke="none" fill="#FFFFFF"></polygon></g></g></g><g transform="translate(10.760228585085848 22.160577215513484)"><g clip-path="url(#i5)"><polygon points="0,5.55111512e-17 13.4796048,5.55111512e-17 13.4796048,4.91263394 0,4.91263394 0,5.55111512e-17" stroke="none" fill="#FFFFFF"></polygon></g></g></g></g></g></svg>