<?xml version="1.0" encoding="UTF-8"?><svg version="1.1" width="37px" height="37px" viewBox="0 0 37.0 37.0" xmlns="http://www.w3.org/2000/svg" xmlns:xlink="http://www.w3.org/1999/xlink"><defs><clipPath id="i0"><path d="M640,0 L640,266 L0,266 L0,0 L640,0 Z"></path></clipPath><clipPath id="i1"><path d="M2.09392662,0 C3.25036028,0 4.18785323,1.3085796 4.18785323,2.92277949 C4.18785323,4.53697938 3.25036028,5.84555898 2.09392662,5.84555898 C0.937492958,5.84555898 0,4.53697938 0,2.92277949 C0,1.3085796 0.937492958,0 2.09392662,0 Z"></path></clipPath><clipPath id="i2"><path d="M2.09392662,0 C3.25036028,0 4.18785323,1.30853808 4.18785323,2.92277949 C4.18785323,4.53693787 3.25036028,5.84551746 2.09392662,5.84551746 C0.937492958,5.84551746 0,4.53693787 0,2.92277949 C0,1.30853808 0.937492958,0 2.09392662,0 Z"></path></clipPath><clipPath id="i3"><path d="M17.5000208,0 C22.1744504,0 26.5691225,1.82031301 29.8743632,5.12563678 C33.179687,8.43091904 35,12.8255496 35,17.4999792 C35,22.1744504 33.179687,26.569081 29.8743217,29.8742802 C26.5689979,33.1796455 22.1744089,35 17.5000208,35 C12.8256326,35 8.43100207,33.1796455 5.12563678,29.8742802 C1.82031301,26.5689979 0,22.1744089 0,17.4999792 C0,12.8255911 1.82031301,8.43096056 5.12563678,5.12563678 C8.43096056,1.82031301 12.8255911,0 17.5000208,0 Z M17.5000208,1.34922103 C13.1859673,1.34922103 9.13016765,3.02921937 6.07969351,6.07969351 C3.02921937,9.13016765 1.34922103,13.1859258 1.34922103,17.4999792 C1.34922103,21.8140327 3.02921937,25.8698323 6.079652,28.9202235 C9.13016765,31.9707391 13.1860504,33.6507375 17.5000208,33.6507375 C21.8139911,33.6507375 25.8697908,31.9707391 28.920265,28.9202235 C31.9707806,25.8698323 33.6507375,21.8140327 33.6507375,17.4999792 C33.6507375,13.1859258 31.9707806,9.13012614 28.920265,6.07969351 C25.8698739,3.02921937 21.8140742,1.34922103 17.5000208,1.34922103 Z"></path></clipPath><clipPath id="i4"><path d="M6.81533219,0.000714752152 C9.14995243,-0.0329109528 11.3494472,1.12007711 13.3573169,3.42451724 C13.6020788,3.70543718 13.5727705,4.13152883 13.2918505,4.37633226 C13.1640729,4.48767071 13.0061151,4.5423021 12.848946,4.5423021 C12.6606836,4.5423021 12.473459,4.46396666 12.3400355,4.31086592 C10.6073154,2.32213379 8.7569053,1.3276847 6.84281394,1.34968671 C3.64073353,1.38941485 1.21872797,4.26819033 1.1946503,4.2972911 C0.957194707,4.58381531 0.532182401,4.62437373 0.245243052,4.38741629 C-0.0416962973,4.15045885 -0.0828774076,3.7262353 0.153664897,3.43892233 C0.267411109,3.30072483 2.98366235,0.0542668008 6.81533219,0.000714752152 Z"></path></clipPath><clipPath id="i5"><path d="M1.02135732,0.0960051961 L5.10281218,2.54088454 C5.42242243,2.73234349 5.52633001,3.14664539 5.33487105,3.46629715 C5.2084218,3.67735034 4.9847901,3.79433459 4.75551261,3.79433459 C4.63753205,3.79433459 4.51805702,3.76340724 4.40945844,3.69835603 L0.328045096,1.25347669 C0.0084348456,1.06201773 -0.0954727341,0.647674324 0.0959862182,0.328064074 C0.287445171,0.00837079704 0.70178858,-0.0954537562 1.02135732,0.0960051961 Z"></path></clipPath><clipPath id="i6"><path d="M5.33487105,0.328008738 C5.52633001,0.647618988 5.42242243,1.0619624 5.10281218,1.25342135 L1.02139883,3.69830069 C0.91284177,3.76331039 0.793325221,3.79427925 0.675344661,3.79427925 C0.446025656,3.79427925 0.222435474,3.67729501 0.0959862182,3.46624182 C-0.0954727341,3.14659005 0.0084348456,2.73228816 0.328045096,2.54082921 L4.40949996,0.0959498602 C4.72902718,-0.0953845524 5.1434121,0.00831546121 5.33487105,0.328008738 Z"></path></clipPath></defs><g transform="translate(-79.0 -136.0)"><g clip-path="url(#i0)"><g transform="translate(80.0 137.0)"><g transform="translate(9.307931396445248 11.65442026793854)"><g clip-path="url(#i1)"><polygon points="0,0 4.18785323,0 4.18785323,5.84555898 0,5.84555898 0,0" stroke="none" fill="#FFFFFF"></polygon></g></g><g transform="translate(21.50416555470551 11.65443272190275)"><g clip-path="url(#i2)"><polygon points="0,0 4.18785323,0 4.18785323,5.84551746 0,5.84551746 0,0" stroke="none" fill="#FFFFFF"></polygon></g></g><g clip-path="url(#i3)"><polygon points="0,0 35,0 35,35 0,35 0,0" stroke="none" fill="#FFFFFF"></polygon></g><path d="M17.5000208,1.34922103 C13.1859673,1.34922103 9.13016765,3.02921937 6.07969351,6.07969351 C3.02921937,9.13016765 1.34922103,13.1859258 1.34922103,17.4999792 C1.34922103,21.8140327 3.02921937,25.8698323 6.079652,28.9202235 C9.13016765,31.9707391 13.1860504,33.6507375 17.5000208,33.6507375 C21.8139911,33.6507375 25.8697908,31.9707391 28.920265,28.9202235 C31.9707806,25.8698323 33.6507375,21.8140327 33.6507375,17.4999792 C33.6507375,13.1859258 31.9707806,9.13012614 28.920265,6.07969351 C25.8698739,3.02921937 21.8140742,1.34922103 17.5000208,1.34922103 M17.5000208,35 C12.8256326,35 8.43100207,33.1796455 5.12563678,29.8742802 C1.82031301,26.5689979 0,22.1744089 0,17.4999792 C0,12.8255911 1.82031301,8.43096056 5.12563678,5.12563678 C8.43096056,1.82031301 12.8255911,0 17.5000208,0 C22.1744504,0 26.5691225,1.82031301 29.8743632,5.12563678 C33.179687,8.43091904 35,12.8255496 35,17.4999792 C35,22.1744504 33.179687,26.569081 29.8743217,29.8742802 C26.5689979,33.1796455 22.1744089,35 17.5000208,35" stroke="#FFFFFF" stroke-width="1" fill="none" stroke-miterlimit="10"></path><g transform="translate(10.73841912541784 21.8458061438219)"><g clip-path="url(#i4)"><polygon points="1.1379786e-15,5.13261308e-16 13.5233142,5.13261308e-16 13.5233142,4.5423021 1.1379786e-15,4.5423021 1.1379786e-15,5.13261308e-16" stroke="none" fill="#FFFFFF"></polygon></g><path d="M12.848946,4.5423021 C12.6606836,4.5423021 12.473459,4.46396666 12.3400355,4.31086592 C10.6073154,2.32213379 8.7569053,1.3276847 6.84281394,1.34968671 C3.64073353,1.38941485 1.21872797,4.26819033 1.1946503,4.2972911 C0.957194707,4.58381531 0.532182401,4.62437373 0.245243052,4.38741629 C-0.0416962973,4.15045885 -0.0828774076,3.7262353 0.153664897,3.43892233 C0.267411109,3.30072483 2.98366235,0.0542668008 6.81533219,0.000714752152 C9.14995243,-0.0329109528 11.3494472,1.12007711 13.3573169,3.42451724 C13.6020788,3.70543718 13.5727705,4.13152883 13.2918505,4.37633226 C13.1640729,4.48767071 13.0061151,4.5423021 12.848946,4.5423021" stroke="#FFFFFF" stroke-width="0.3" fill="none" stroke-miterlimit="10"></path></g><g transform="translate(8.323836342449036 9.257906238439041)"><g clip-path="url(#i5)"><polygon points="-3.88578059e-16,8.32667268e-16 5.43085727,8.32667268e-16 5.43085727,3.79433459 -3.88578059e-16,3.79433459 -3.88578059e-16,8.32667268e-16" stroke="none" fill="#FFFFFF"></polygon></g></g><g transform="translate(21.0694107370974 9.257961574272805)"><g clip-path="url(#i6)"><polygon points="-3.60822483e-16,-7.77156117e-16 5.43085727,-7.77156117e-16 5.43085727,3.79427925 -3.60822483e-16,3.79427925 -3.60822483e-16,-7.77156117e-16" stroke="none" fill="#FFFFFF"></polygon></g></g></g></g></g></svg>