<?xml version="1.0" encoding="UTF-8"?><svg version="1.1" width="35px" height="35px" viewBox="0 0 35.0 35.0" xmlns="http://www.w3.org/2000/svg" xmlns:xlink="http://www.w3.org/1999/xlink"><defs><clipPath id="i0"><path d="M640,0 L640,266 L0,266 L0,0 L640,0 Z"></path></clipPath><clipPath id="i1"><path d="M2.70073845,0 C4.19230311,0 5.40147689,1.20912379 5.40147689,2.70069806 C5.40147689,4.19227233 4.19230311,5.40145389 2.70073845,5.40145389 C1.20917378,5.40145389 0,4.19227233 0,2.70069806 C0,1.20912379 1.20917378,0 2.70073845,0 Z"></path></clipPath><clipPath id="i2"><path d="M2.70068067,0 C4.19224534,0 5.40141912,1.20912379 5.40141912,2.70069806 C5.40141912,4.19227233 4.19224534,5.40145389 2.70068067,5.40145389 C1.209116,5.40145389 0,4.19227233 0,2.70069806 C0,1.20912379 1.209116,0 2.70068067,0 Z"></path></clipPath><clipPath id="i3"><path d="M35,0 L35,35 L0,35 L0,0 L35,0 Z"></path></clipPath><clipPath id="i4"><path d="M17.4999162,0 C27.149562,0 35,7.85037874 35,17.4999133 C35,27.1495057 27.149562,35 17.4999162,35 C7.85044375,35 0,27.1495057 0,17.4999133 C0,7.85037874 7.85044375,0 17.4999162,0 Z M17.4999162,2.52709125 C9.24385332,2.52709125 2.52707498,9.24391283 2.52707498,17.4999133 C2.52707498,25.7560294 9.24385332,32.4729088 17.4999162,32.4729088 C25.7560369,32.4729088 32.4729308,25.7560294 32.4729308,17.4999133 C32.4729308,9.24391283 25.7560369,2.52709125 17.4999162,2.52709125 Z"></path></clipPath><clipPath id="i5"><path d="M13.191695,2.845706 C13.6352128,3.38443596 13.5580291,4.18083194 13.0194181,4.62441034 C12.4805761,5.06804652 11.6843585,4.99068894 11.2407252,4.4521323 C9.66388867,2.53696896 6.27721997,1.96028237 3.84471821,3.19245745 C3.20575682,3.51621538 2.65068077,3.95159006 2.23957324,4.45155458 C1.98976591,4.7552654 1.62776482,4.91246478 1.26287511,4.91246478 C0.980368675,4.91246478 0.69618684,4.81829536 0.460995897,4.62487253 C-0.0779616834,4.18158298 -0.155607625,3.38530255 0.287679063,2.84628373 C0.919187832,2.07860076 1.75428611,1.41872155 2.70267582,0.93811088 C6.23181096,-0.849201586 10.8390346,-0.0114403914 13.191695,2.845706 Z"></path></clipPath></defs><g transform="translate(-159.0 -140.0)"><g clip-path="url(#i0)"><g transform="translate(159.0 140.0)"><g transform="translate(7.4417337691673975 11.00676435196418)"><g clip-path="url(#i1)"><polygon points="0,0 5.40147689,0 5.40147689,5.40145389 0,5.40145389 0,0" stroke="none" fill="#FFFFFF"></polygon></g></g><g transform="translate(22.15688177596605 11.00676435196418)"><g clip-path="url(#i2)"><polygon points="0,0 5.40141912,0 5.40141912,5.40145389 0,5.40145389 0,0" stroke="none" fill="#FFFFFF"></polygon></g></g><g clip-path="url(#i3)"><g transform="translate(-5.777228579972871e-06 0.0)"><g clip-path="url(#i4)"><polygon points="5.77722858e-06,0 35,0 35,35 5.77722858e-06,35 5.77722858e-06,0" stroke="none" fill="#FFFFFF"></polygon></g></g></g><g transform="translate(10.760130963103801 21.176658615229776)"><g clip-path="url(#i5)"><polygon points="-5.55111512e-17,3.33066907e-16 13.47978,3.33066907e-16 13.47978,4.91252661 -5.55111512e-17,4.91252661 -5.55111512e-17,3.33066907e-16" stroke="none" fill="#FFFFFF"></polygon></g></g></g></g></g></svg>