<?xml version="1.0" encoding="UTF-8"?><svg version="1.1" width="35px" height="35px" viewBox="0 0 35.0 35.0" xmlns="http://www.w3.org/2000/svg" xmlns:xlink="http://www.w3.org/1999/xlink"><defs><clipPath id="i0"><path d="M640,0 L640,266 L0,266 L0,0 L640,0 Z"></path></clipPath><clipPath id="i1"><path d="M2.70068067,0 C4.19224534,0 5.40141912,1.20912379 5.40141912,2.70069806 C5.40141912,4.19227233 4.19224534,5.40145389 2.70068067,5.40145389 C1.209116,5.40145389 0,4.19227233 0,2.70069806 C0,1.20912379 1.209116,0 2.70068067,0 Z"></path></clipPath><clipPath id="i2"><path d="M2.70068067,0 C4.19224534,0 5.40141912,1.20912379 5.40141912,2.70069806 C5.40141912,4.19227233 4.19224534,5.40145389 2.70068067,5.40145389 C1.209116,5.40145389 0,4.19227233 0,2.70069806 C0,1.20912379 1.209116,0 2.70068067,0 Z"></path></clipPath><clipPath id="i3"><path d="M35,0 L35,35 L0,35 L0,0 L35,0 Z"></path></clipPath><clipPath id="i4"><path d="M17.4999162,0 C27.149562,0 35,7.85037874 35,17.4999133 C35,27.1495057 27.149562,35 17.4999162,35 C7.85050152,35 0,27.1495057 0,17.4999133 C0,7.85037874 7.85050152,0 17.4999162,0 Z M17.4999162,2.52709125 C9.24385332,2.52709125 2.52707498,9.24391283 2.52707498,17.4999133 C2.52707498,25.7560294 9.24385332,32.4729088 17.4999162,32.4729088 C25.7560369,32.4729088 32.4729308,25.7560294 32.4729308,17.4999133 C32.4729308,9.24391283 25.7560369,2.52709125 17.4999162,2.52709125 Z"></path></clipPath><clipPath id="i5"><path d="M16.0925835,0 C16.0925835,4.44381445 12.4901354,8.04634357 8.046234,8.04634357 C3.60244816,8.04634357 0,4.44381445 0,0 Z"></path></clipPath></defs><g transform="translate(-397.0 -139.0)"><g clip-path="url(#i0)"><g transform="translate(397.0 139.0)"><g transform="translate(7.441791541445252 11.00676435196418)"><g clip-path="url(#i1)"><polygon points="0,0 5.40141912,0 5.40141912,5.40145389 0,5.40145389 0,0" stroke="none" fill="#FFFFFF"></polygon></g></g><g transform="translate(22.15688177596605 11.00676435196418)"><g clip-path="url(#i2)"><polygon points="0,0 5.40141912,0 5.40141912,5.40145389 0,5.40145389 0,0" stroke="none" fill="#FFFFFF"></polygon></g></g><g clip-path="url(#i3)"><g transform="translate(-5.777228579972871e-06 0.0)"><g clip-path="url(#i4)"><polygon points="5.77722858e-06,0 35,0 35,35 5.77722858e-06,35 5.77722858e-06,0" stroke="none" fill="#FFFFFF"></polygon></g></g></g><g transform="translate(9.453757335634979 20.81931603785265)"><g clip-path="url(#i5)"><polygon points="0,0 16.0925835,0 16.0925835,8.04634357 0,8.04634357 0,0" stroke="none" fill="#FFFFFF"></polygon></g></g></g></g></g></svg>