<svg id="face_icon01" xmlns="http://www.w3.org/2000/svg" xmlns:xlink="http://www.w3.org/1999/xlink" width="16" height="16" viewBox="0 0 16 16">
  <defs>
    <clipPath id="clip-path">
      <path id="Clip_6" data-name="Clip 6" d="M0,0H16V16H0Z" fill="none"/>
    </clipPath>
  </defs>
  <path id="Fill_1" data-name="Fill 1" d="M1.235,0A1.235,1.235,0,1,0,2.469,1.235,1.235,1.235,0,0,0,1.235,0" transform="translate(3.402 5.032)" fill="#ff7c84"/>
  <path id="Fill_3" data-name="Fill 3" d="M1.235,0A1.235,1.235,0,1,0,2.469,1.235,1.235,1.235,0,0,0,1.235,0" transform="translate(10.129 5.032)" fill="#ff7c84"/>
  <g id="Group_7" data-name="Group 7">
    <path id="Clip_6-2" data-name="Clip 6" d="M0,0H16V16H0Z" fill="none"/>
    <g id="Group_7-2" data-name="Group 7" clip-path="url(#clip-path)">
      <path id="Fill_5" data-name="Fill 5" d="M8,16a8,8,0,1,1,8-8A8.009,8.009,0,0,1,8,16ZM8,1.156A6.844,6.844,0,1,0,14.845,8,6.852,6.852,0,0,0,8,1.156Z" transform="translate(0)" fill="#ff7c84"/>
    </g>
  </g>
  <path id="Fill_8" data-name="Fill 8" d="M3.678,3.678A3.678,3.678,0,0,0,7.357,0H0A3.678,3.678,0,0,0,3.678,3.678" transform="translate(4.322 9.517)" fill="#ff7c84"/>
</svg>
