<svg xmlns="http://www.w3.org/2000/svg" width="15.577" height="14.451" viewBox="0 0 15.577 14.451">
  <g id="like_icon" transform="translate(0.5 0.5)">
    <path id="Fill_4" data-name="Fill 4" d="M3.8,0H.681A.664.664,0,0,0,0,.646V7.2a.664.664,0,0,0,.681.646H3.8A.664.664,0,0,0,4.484,7.2V.646A.664.664,0,0,0,3.8,0" transform="translate(0 4.484)" fill="none" stroke="#555" stroke-miterlimit="10" stroke-width="1"/>
    <path id="Fill_6" data-name="Fill 6" d="M8.381,5.695a1.35,1.35,0,0,0-.773-.471,10.847,10.847,0,0,0-2.924-.177,9.319,9.319,0,0,0,.444-3.838C4.971.28,4.542.008,4.093,0H4.074a1.472,1.472,0,0,0-.359.046c-.387.1-.516.48-.574.871-.037.251-.09.626-.144,1.009A4.754,4.754,0,0,1,1.968,4.132,14.906,14.906,0,0,1,.749,5.454a2.388,2.388,0,0,1-.259.169A.96.96,0,0,0,0,6.462v5.419a.955.955,0,0,0,.619.9,14.923,14.923,0,0,0,4.341.658q.368.016.686.012h.131c3.478-.089,2.42-1.965,2.42-1.965a1.31,1.31,0,0,0,.366-2.034,1.422,1.422,0,0,0-.192-2.113A1.564,1.564,0,0,0,8.381,5.695Z" transform="translate(5.604)" fill="none" stroke="#555" stroke-miterlimit="10" stroke-width="1"/>
  </g>
</svg>
