<svg xmlns="http://www.w3.org/2000/svg" width="20" height="20" viewBox="0 0 20 20">
  <g id="place_icon" transform="translate(0 0)">
    <path id="Fill_1" data-name="Fill 1" d="M2.5,5A2.5,2.5,0,1,1,5,2.5,2.5,2.5,0,0,1,2.5,5ZM2.5.833A1.667,1.667,0,1,0,4.167,2.5,1.669,1.669,0,0,0,2.5.833Z" transform="translate(7.5 2.5)" fill="#555"/>
    <path id="Fill_3" data-name="Fill 3" d="M5,13.333H5a.418.418,0,0,1-.339-.175L.966,7.946a.466.466,0,0,1-.048-.055,5,5,0,1,1,8.164,0L5.34,13.158A.418.418,0,0,1,5,13.333ZM5,.833A4.169,4.169,0,0,0,1.561,7.356a.51.51,0,0,1,.045.053L5,12.2,8.366,7.459a.414.414,0,0,1,.068-.1A4.169,4.169,0,0,0,5,.833Z" transform="translate(5)" fill="#555"/>
    <path id="Fill_5" data-name="Fill 5" d="M.417,1.25A.417.417,0,0,1,0,.833V.417a.417.417,0,0,1,.833,0V.833a.417.417,0,0,1-.417.417" transform="translate(9.583 17.083)" fill="#555"/>
    <path id="Fill_7" data-name="Fill 7" d="M.417,1.25A.417.417,0,0,1,0,.833V.417a.417.417,0,0,1,.833,0V.833a.417.417,0,0,1-.417.417" transform="translate(9.583 14.583)" fill="#555"/>
    <path id="Fill_9" data-name="Fill 9" d="M.417,1.25A.417.417,0,0,1,0,.833V.417a.417.417,0,0,1,.833,0V.833a.417.417,0,0,1-.417.417" transform="translate(5 17.083)" fill="#555"/>
    <path id="Fill_11" data-name="Fill 11" d="M.417,1.25A.417.417,0,0,1,0,.833V.417a.417.417,0,0,1,.833,0V.833a.417.417,0,0,1-.417.417" transform="translate(5 14.583)" fill="#555"/>
    <path id="Fill_13" data-name="Fill 13" d="M.417,1.25A.417.417,0,0,1,0,.833V.417a.417.417,0,0,1,.833,0V.833a.417.417,0,0,1-.417.417" transform="translate(5 12.083)" fill="#555"/>
    <path id="Fill_15" data-name="Fill 15" d="M.417,1.25A.417.417,0,0,1,0,.833V.417a.417.417,0,0,1,.833,0V.833a.417.417,0,0,1-.417.417" transform="translate(5 9.583)" fill="#555"/>
    <path id="Fill_17" data-name="Fill 17" d="M.417,1.25A.417.417,0,0,1,0,.833V.417a.417.417,0,0,1,.833,0V.833a.417.417,0,0,1-.417.417" transform="translate(14.167 17.083)" fill="#555"/>
    <path id="Fill_19" data-name="Fill 19" d="M.417,1.25A.417.417,0,0,1,0,.833V.417a.417.417,0,0,1,.833,0V.833a.417.417,0,0,1-.417.417" transform="translate(14.167 14.583)" fill="#555"/>
    <path id="Fill_21" data-name="Fill 21" d="M.417,1.25A.417.417,0,0,1,0,.833V.417a.417.417,0,0,1,.833,0V.833a.417.417,0,0,1-.417.417" transform="translate(14.167 12.083)" fill="#555"/>
    <path id="Fill_23" data-name="Fill 23" d="M.083.833V.417a.417.417,0,0,1,.833,0V.833a.417.417,0,1,1-.833,0Z" transform="translate(14.083 9.583)" fill="#555"/>
    <path id="Fill_25" data-name="Fill 25" d="M19.583,14.442a.415.415,0,0,1-.132-.021L14.589,12.8l-4.447,1.617a.416.416,0,0,1-.285,0L5.411,12.8.548,14.42a.417.417,0,0,1-.548-.4V1.525a.417.417,0,0,1,.285-.4L3.619.021a.417.417,0,0,1,.263.791L.833,1.826V13.447l4.452-1.484a.417.417,0,0,1,.274,0L10,13.582l4.441-1.615a.417.417,0,0,1,.274,0l4.452,1.484V1.826L16.119.812a.417.417,0,0,1,.263-.791L19.715,1.13a.417.417,0,0,1,.285.4v12.5a.417.417,0,0,1-.417.417" transform="translate(0 5.558)" fill="#555"/>
  </g>
</svg>
