<svg id="type_icon" xmlns="http://www.w3.org/2000/svg" xmlns:xlink="http://www.w3.org/1999/xlink" width="20" height="19.571" viewBox="0 0 20 19.571">
  <defs>
    <clipPath id="clip-path">
      <path id="Clip_2" data-name="Clip 2" d="M0,0H14.765V13H0Z" fill="none"/>
    </clipPath>
    <clipPath id="clip-path-2">
      <path id="Clip_9" data-name="Clip 9" d="M0,0H20V6.84H0Z" fill="none"/>
    </clipPath>
  </defs>
  <g id="Group_3" data-name="Group 3" transform="translate(2.618 6.57)">
    <path id="Clip_2-2" data-name="Clip 2" d="M0,0H14.765V13H0Z" fill="none"/>
    <g id="Group_3-2" data-name="Group 3" clip-path="url(#clip-path)">
      <path id="Fill_1" data-name="Fill 1" d="M14.091,13H6.836a.675.675,0,0,1-.674-.674V8.708H4.5v3.621A.674.674,0,0,1,3.824,13H.673A.674.674,0,0,1,0,12.328V.673A.674.674,0,0,1,.673,0H14.091a.674.674,0,0,1,.673.673V12.328A.674.674,0,0,1,14.091,13ZM3.824,7.36H6.836a.674.674,0,0,1,.673.673v3.622h5.909V1.346H1.346V11.655h1.8V8.033A.674.674,0,0,1,3.824,7.36Z" fill="#555" stroke="#faf7e2" stroke-miterlimit="10" stroke-width="0.5"/>
    </g>
  </g>
  <path id="Fill_4" data-name="Fill 4" d="M.673,3.11a.673.673,0,0,0,.673-.673V.673A.673.673,0,0,0,0,.673V2.436a.673.673,0,0,0,.673.673" transform="translate(12.119 9.441)" fill="#555" stroke="#faf7e2" stroke-miterlimit="10" stroke-width="0.5"/>
  <path id="Fill_6" data-name="Fill 6" d="M.673,3.11a.673.673,0,0,0,.673-.673V.673A.673.673,0,0,0,0,.673V2.436a.673.673,0,0,0,.673.673" transform="translate(6.535 9.441)" fill="#555" stroke="#faf7e2" stroke-miterlimit="10" stroke-width="0.5"/>
  <g id="Group_10" data-name="Group 10">
    <path id="Clip_9-2" data-name="Clip 9" d="M0,0H20V6.84H0Z" fill="none"/>
    <g id="Group_10-2" data-name="Group 10" clip-path="url(#clip-path-2)">
      <path id="Fill_8" data-name="Fill 8" d="M19.668,5.587l-3.4-2.005V2.14a.673.673,0,0,0-1.347,0v.648L10.342.093a.673.673,0,0,0-.683,0L.332,5.587a.673.673,0,1,0,.683,1.16L10,1.455l8.985,5.292a.673.673,0,0,0,.683-1.16" transform="translate(0)" fill="#555" stroke="#faf7e2" stroke-miterlimit="10" stroke-width="0.5"/>
    </g>
  </g>
</svg>
