<?xml version="1.0" encoding="UTF-8"?><svg version="1.1" width="26px" height="26px" viewBox="0 0 26.0 26.0" xmlns="http://www.w3.org/2000/svg" xmlns:xlink="http://www.w3.org/1999/xlink"><defs><clipPath id="i0"><path d="M1440,0 L1440,4703 L0,4703 L0,0 L1440,0 Z"></path></clipPath><clipPath id="i1"><path d="M374.134875,0 C379.657722,-1.01453063e-15 384.134875,4.4771525 384.134875,10 L384.134875,297 C384.134875,302.522847 379.657722,307 374.134875,307 L10,307 C4.4771525,307 7.78178111e-15,302.522847 0,297 L0,10 C1.10000309e-15,4.4771525 4.4771525,4.56724431e-15 10,0 L374.134875,0 Z"></path></clipPath><clipPath id="i2"><path d="M18.4559516,0 L18.4559516,16.0824753 L0,16.0824753 L0,0 L18.4559516,0 Z"></path></clipPath><clipPath id="i3"><path d="M17.6141914,0 C18.079138,0 18.4559516,0.372874033 18.4559516,0.832781671 L18.4559516,15.249569 C18.4559516,15.7096547 18.079138,16.0825287 17.6141914,16.0825287 L8.54494495,16.0825287 C8.07999836,16.0825287 7.70318478,15.7096547 7.70318478,15.249569 L7.70318478,10.7700971 L5.62216657,10.7700971 L5.62216657,15.249569 C5.62216657,15.7096547 5.24535298,16.0825287 4.78058626,16.0825287 L0.841580311,16.0825287 C0.376633719,16.0825287 0,15.7096547 0,15.249569 L0,0.832781671 C0,0.372874033 0.376633719,0 0.841580311,0 Z M16.7726111,1.66574132 L1.68316062,1.66574132 L1.68316062,14.4167874 L3.93882608,14.4167874 L3.93882608,9.93713748 C3.93882608,9.47722984 4.31563966,9.10435581 4.78058626,9.10435581 L8.54494495,9.10435581 C9.00971168,9.10435581 9.38652526,9.47722984 9.38652526,9.93713748 L9.38652526,14.4167874 L16.7726111,14.4167874 L16.7726111,1.66574132 Z"></path></clipPath><clipPath id="i4"><path d="M0.841580311,0 C1.30634704,0 1.68316062,0.372874033 1.68316062,0.832781671 L1.68316062,3.01360531 C1.68316062,3.47351295 1.30634704,3.84638698 0.841580311,3.84638698 C0.376813582,3.84638698 0,3.47351295 0,3.01360531 L0,0.832781671 C0,0.372874033 0.376813582,0 0.841580311,0 Z"></path></clipPath><clipPath id="i5"><path d="M0.841580311,0 C1.30634704,0 1.68316062,0.372874033 1.68316062,0.832781671 L1.68316062,3.01360531 C1.68316062,3.47351295 1.30634704,3.84638698 0.841580311,3.84638698 C0.376633719,3.84638698 0,3.47351295 0,3.01360531 L0,0.832781671 C0,0.372874033 0.376633719,0 0.841580311,0 Z"></path></clipPath><clipPath id="i6"><path d="M25,0 L25,8.46102286 L0,8.46102286 L0,0 L25,0 Z"></path></clipPath><clipPath id="i7"><path d="M12.072819,0.115332875 C12.3364985,-0.0384442917 12.66349,-0.0384442917 12.9271696,0.115332875 L18.6470019,3.4491293 L18.6470019,2.64749463 C18.6470019,2.18758699 19.0238155,1.81471296 19.4885822,1.81471296 C19.9535288,1.81471296 20.3303424,2.18758699 20.3303424,2.64749463 L20.3303424,4.43017067 L24.585548,6.91036144 C24.9859237,7.14369693 25.1193822,7.65432967 24.8834016,8.05069744 C24.7265608,8.31429001 24.4457942,8.46102286 24.1576532,8.46102286 C24.0125036,8.46102286 23.8653754,8.42374946 23.7311974,8.34561499 L12.5,1.79940643 L1.26897102,8.34561499 C0.868235619,8.57912847 0.352747444,8.44706521 0.11658695,8.05069744 C-0.11939368,7.65432967 0.0142447411,7.14369693 0.414620414,6.91036144 Z"></path></clipPath></defs><g transform="translate(-245.0 -543.0)"><g clip-path="url(#i0)"><g transform="translate(119.99999999999955 344.0)"><g clip-path="url(#i1)"><g transform="translate(23.999999999998636 174.0)"><g transform="translate(101.49677799014763 25.83383256973184)"><g transform="translate(3.272126842287806 8.126037573456077)"><g clip-path="url(#i2)"><g clip-path="url(#i3)"><polygon points="0,0 18.4559516,0 18.4559516,16.0824753 0,16.0824753 0,0" stroke="none" fill="#555555"></polygon></g><path d="M16.7726111,14.4167874 L9.38652526,14.4167874 L9.38652526,9.93713748 C9.38652526,9.47722984 9.00971168,9.10435581 8.54494495,9.10435581 L4.78058626,9.10435581 C4.31563966,9.10435581 3.93882608,9.47722984 3.93882608,9.93713748 L3.93882608,14.4167874 L1.68316062,14.4167874 L1.68316062,1.66574132 L16.7726111,1.66574132 L16.7726111,14.4167874 Z M17.6141914,0 L0.841580311,0 C0.376633719,0 0,0.372874033 0,0.832781671 L0,15.249569 C0,15.7096547 0.376633719,16.0825287 0.841580311,16.0825287 L4.78058626,16.0825287 C5.24535298,16.0825287 5.62216657,15.7096547 5.62216657,15.249569 L5.62216657,10.7700971 L7.70318478,10.7700971 L7.70318478,15.249569 C7.70318478,15.7096547 8.07999836,16.0825287 8.54494495,16.0825287 L17.6141914,16.0825287 C18.079138,16.0825287 18.4559516,15.7096547 18.4559516,15.249569 L18.4559516,0.832781671 C18.4559516,0.372874033 18.079138,0 17.6141914,0 L17.6141914,0 Z" stroke="#FFFFFF" stroke-width="0.55" fill="none" stroke-miterlimit="10"></path></g></g><g transform="translate(15.14857150552406 11.67820113658533)"><g clip-path="url(#i4)"><polygon points="0,0 1.68316062,0 1.68316062,3.84638698 0,3.84638698 0,0" stroke="none" fill="#555555"></polygon></g><path d="M0.841580311,3.84638698 C1.30634704,3.84638698 1.68316062,3.47351295 1.68316062,3.01360531 L1.68316062,0.832781671 C1.68316062,0.372874033 1.30634704,0 0.841580311,0 C0.376813582,0 0,0.372874033 0,0.832781671 L0,3.01360531 C0,3.47351295 0.376813582,3.84638698 0.841580311,3.84638698" stroke="#FFFFFF" stroke-width="0.55" fill="none" stroke-miterlimit="10"></path></g><g transform="translate(8.16832921776464 11.67820113658533)"><g clip-path="url(#i5)"><polygon points="0,0 1.68316062,0 1.68316062,3.84638698 0,3.84638698 0,0" stroke="none" fill="#555555"></polygon></g><path d="M0.841580311,3.84638698 C1.30634704,3.84638698 1.68316062,3.47351295 1.68316062,3.01360531 L1.68316062,0.832781671 C1.68316062,0.372874033 1.30634704,0 0.841580311,0 C0.376633719,0 0,0.372874033 0,0.832781671 L0,3.01360531 C0,3.47351295 0.376633719,3.84638698 0.841580311,3.84638698" stroke="#FFFFFF" stroke-width="0.55" fill="none" stroke-miterlimit="10"></path></g><g clip-path="url(#i6)"><g transform="translate(-3.554159521712563e-05 0.0)"><g clip-path="url(#i7)"><polygon points="3.55415952e-05,0 25.0000355,0 25.0000355,8.46102286 3.55415952e-05,8.46102286 3.55415952e-05,0" stroke="none" fill="#555555"></polygon></g><path d="M24.585548,6.91036144 L20.3303424,4.43017067 L20.3303424,2.64749463 C20.3303424,2.18758699 19.9535288,1.81471296 19.4885822,1.81471296 C19.0238155,1.81471296 18.6470019,2.18758699 18.6470019,2.64749463 L18.6470019,3.4491293 L12.9271696,0.115332875 C12.66349,-0.0384442917 12.3364985,-0.0384442917 12.072819,0.115332875 L0.414620414,6.91036144 C0.0142447411,7.14369693 -0.11939368,7.65432967 0.11658695,8.05069744 C0.352747444,8.44706521 0.868235619,8.57912847 1.26897102,8.34561499 L12.5,1.79940643 L23.7311974,8.34561499 C23.8653754,8.42374946 24.0125036,8.46102286 24.1576532,8.46102286 C24.4457942,8.46102286 24.7265608,8.31429001 24.8834016,8.05069744 C25.1193822,7.65432967 24.9859237,7.14369693 24.585548,6.91036144" stroke="#FFFFFF" stroke-width="0.55" fill="none" stroke-miterlimit="10"></path></g></g></g></g></g></g></g></g></svg>