<?xml version="1.0" encoding="UTF-8"?><svg version="1.1" width="25px" height="25px" viewBox="0 0 25.0 25.0" xmlns="http://www.w3.org/2000/svg" xmlns:xlink="http://www.w3.org/1999/xlink"><defs><clipPath id="i0"><path d="M1440,0 L1440,4703 L0,4703 L0,0 L1440,0 Z"></path></clipPath><clipPath id="i1"><path d="M374.134875,0 C379.657722,-1.01453063e-15 384.134875,4.4771525 384.134875,10 L384.134875,297 C384.134875,302.522847 379.657722,307 374.134875,307 L10,307 C4.4771525,307 7.78178111e-15,302.522847 0,297 L0,10 C1.10000309e-15,4.4771525 4.4771525,4.56724431e-15 10,0 L374.134875,0 Z"></path></clipPath><clipPath id="i2"><path d="M25,0 L25,24.7383063 L0,24.7383063 L0,0 L25,0 Z"></path></clipPath><clipPath id="i3"><path d="M12.4999406,0 C19.3925362,0 25,5.54877507 25,12.3690928 C25,19.1895376 19.3925362,24.7383127 12.4999406,24.7383127 C5.6074734,24.7383127 0,19.1895376 0,12.3690928 C0,5.54877507 5.6074734,0 12.4999406,0 Z M12.4999406,0.99861568 C6.16388266,0.99861568 1.00917965,6.09935992 1.00917965,12.3690928 C1.00917965,18.6388258 6.16388266,23.739697 12.4999406,23.739697 C18.8359986,23.739697 23.99083,18.6388258 23.99083,12.3690928 C23.99083,6.09935992 18.8359986,0.99861568 12.4999406,0.99861568 Z"></path></clipPath><clipPath id="i4"><path d="M6.01384693,0 C9.32987417,0 12.0276618,2.66954749 12.0276618,5.95089473 C12.0276618,6.6592159 11.902878,7.35258259 11.6567436,8.01207153 C10.761278,10.6387241 8.34097309,12.8271886 6.33179049,14.4407473 C6.24011981,14.5143449 6.12743258,14.5523502 6.01375067,14.5523502 C5.94004834,14.5523502 5.86596097,14.5364114 5.79684699,14.5038355 C5.62117427,14.4210303 5.5092571,14.2456407 5.5092571,14.0530741 L5.5092571,11.8810247 C2.4282944,11.6267352 0,9.06418675 0,5.95089473 C0,2.66954749 2.6977876,0 6.01384693,0 Z M6.01384693,0.99855218 C3.25422895,0.99855218 1.00911547,3.22016409 1.00911547,5.95089473 C1.00911547,8.68159363 3.25422895,10.9032055 6.01384693,10.9032055 C6.29248472,10.9032055 6.51840466,11.1267606 6.51840466,11.4024816 L6.51840466,12.9860362 C8.8300973,11.018047 10.1342788,9.3597201 10.7027204,7.6865975 C10.7043568,7.68177143 10.7060895,7.67694536 10.7078863,7.67215104 C10.914009,7.1219472 11.0185463,6.54288219 11.0185463,5.95098998 C11.0185463,3.22016409 8.77343282,0.99855218 6.01384693,0.99855218 Z"></path></clipPath><clipPath id="i5"><path d="M5.08209162,0 C5.36076151,0 5.58664936,0.223555036 5.58664936,0.49927609 C5.58664936,0.775028894 5.36076151,0.99855218 5.08209162,0.99855218 L0.504557737,0.99855218 C0.225919938,0.99855218 0,0.775028894 0,0.49927609 C0,0.223555036 0.225919938,0 0.504557737,0 Z"></path></clipPath><clipPath id="i6"><path d="M5.08209162,0 C5.36076151,0 5.58664936,0.223555036 5.58664936,0.49927609 C5.58664936,0.775028894 5.36076151,0.99855218 5.08209162,0.99855218 L0.504557737,0.99855218 C0.225919938,0.99855218 0,0.775028894 0,0.49927609 C0,0.223555036 0.225919938,0 0.504557737,0 Z"></path></clipPath></defs><g transform="translate(-144.0 -543.0)"><g clip-path="url(#i0)"><g transform="translate(119.99999999999955 344.0)"><g clip-path="url(#i1)"><g transform="translate(23.999999999998636 174.0)"><g transform="translate(0.0 25.0)"><g clip-path="url(#i2)"><g transform="translate(-9.625902995580304e-06 0.0)"><g clip-path="url(#i3)"><polygon points="9.625903e-06,0 25,0 25,24.7383063 9.625903e-06,24.7383063 9.625903e-06,0" stroke="none" fill="#404040"></polygon></g></g></g><g transform="translate(6.486167513553482 5.348013695154805)"><g clip-path="url(#i4)"><polygon points="0,0 12.0276618,0 12.0276618,14.5523502 0,14.5523502 0,0" stroke="none" fill="#404040"></polygon></g></g><g transform="translate(9.70667692402867 9.718567045847067)"><g clip-path="url(#i5)"><polygon points="0,0 5.58664936,0 5.58664936,0.99855218 0,0.99855218 0,0" stroke="none" fill="#404040"></polygon></g></g><g transform="translate(9.70667692402867 11.88066905550659)"><g clip-path="url(#i6)"><polygon points="0,0 5.58664936,0 5.58664936,0.99855218 0,0.99855218 0,0" stroke="none" fill="#404040"></polygon></g></g></g></g></g></g></g></g></svg>