<svg id="bad_icon02" xmlns="http://www.w3.org/2000/svg" xmlns:xlink="http://www.w3.org/1999/xlink" width="100" height="100" viewBox="0 0 100 100">
  <defs>
    <clipPath id="clip-path">
      <rect id="Mask" width="100" height="100" rx="50" fill="#1a93c7"/>
    </clipPath>
    <clipPath id="clip-path-2">
      <path id="Clip_8" data-name="Clip 8" d="M0,0H34.52V40.307H0Z" transform="translate(0)" fill="none"/>
    </clipPath>
    <clipPath id="clip-path-3">
      <path id="Clip_11" data-name="Clip 11" d="M0,0H30.352V45.942H0Z" fill="none"/>
    </clipPath>
    <clipPath id="clip-path-4">
      <path id="Clip_16" data-name="Clip 16" d="M0,0H36.119V54.43H0Z" fill="none"/>
    </clipPath>
  </defs>
  <rect id="Mask-2" data-name="Mask" width="100" height="100" rx="50" fill="#1a93c7"/>
  <g id="Group_15" data-name="Group 15" clip-path="url(#clip-path)">
    <g id="Group_18" data-name="Group 18" transform="translate(12 12)">
      <path id="Fill_1" data-name="Fill 1" d="M69.781,31.068c-1.292-8.516-5.6-13-11.416-13a24.513,24.513,0,0,1-10.984-2.531c-1.938-.807-1.787-2.914-2.154-4.949C43.986,3.713,44.8,0,44.8,0H26.92s.81,3.713-.432,10.586c-.367,2.035-.215,4.142-2.153,4.949a24.513,24.513,0,0,1-10.984,2.531c-5.816,0-10.124,4.486-11.416,13S-.327,56.461.1,60.41H71.612c.431-3.949-.539-20.826-1.831-29.342" transform="translate(0.687 45.262)" fill="#f9ddc7"/>
      <path id="Fill_3" data-name="Fill 3" d="M18.074,8.361A37.724,37.724,0,0,1,17.415,0c-2.784,2.343-6.284,3.89-8.708,3.89S2.784,2.343,0,0C.006.119.011.244.015.373A35.52,35.52,0,0,0,12.5,7.093a37.626,37.626,0,0,0,5.573,1.268" transform="translate(27.837 47.469)" fill="#edccb7"/>
      <path id="Fill_5" data-name="Fill 5" d="M38.2,21.4a2.079,2.079,0,0,0-3.449-.227c-.052-1.074-.125-2.22-.22-3.455C33.487,4.142,27.734,0,19.334,0S5.181,4.142,4.133,17.72c-.095,1.235-.168,2.381-.221,3.455A2.079,2.079,0,0,0,.463,21.4c-1.15,1.5.06,5.8,1.266,7.02a3.925,3.925,0,0,0,2.3,1.47,26.2,26.2,0,0,0,2.874,9.461c2.186,4.717,8.63,8.514,12.427,8.514s10.241-3.8,12.427-8.514a26.176,26.176,0,0,0,2.875-9.461,3.92,3.92,0,0,0,2.3-1.47C38.145,27.2,39.356,22.9,38.2,21.4" transform="translate(17.211 3.492)" fill="#f9ddc7"/>
      <g id="Group_9" data-name="Group 9" transform="translate(19.285 66.056)">
        <path id="Clip_8-2" data-name="Clip 8" d="M0,0H34.52V40.307H0Z" transform="translate(0)" fill="none"/>
        <g id="Group_9-2" data-name="Group 9" clip-path="url(#clip-path-2)">
          <path id="Fill_7" data-name="Fill 7" d="M0,0V40.307H34.52V0A54.994,54.994,0,0,1,0,0" transform="translate(0)" fill="#fafafa"/>
        </g>
      </g>
      <g id="Group_12" data-name="Group 12" transform="translate(42.738 60.421)">
        <path id="Clip_11-2" data-name="Clip 11" d="M0,0H30.352V45.942H0Z" fill="none"/>
        <g id="Group_12-2" data-name="Group 12" clip-path="url(#clip-path-3)">
          <path id="Fill_10" data-name="Fill 10" d="M28.413,15.805c-1.311-8.637-5.72-13.59-12.1-13.59A22.764,22.764,0,0,1,6.3.039C6.27.028,6.241.014,6.21,0L5.782.991,0,45.942H30.181l.066-.617c.427-3.913-.5-20.721-1.834-29.52" fill="#595758"/>
        </g>
      </g>
      <path id="Fill_13" data-name="Fill 13" d="M24.57.99,24.143,0c-.031.013-.06.027-.092.039A22.777,22.777,0,0,1,14.038,2.215C7.659,2.215,3.25,7.168,1.939,15.8.6,24.6-.322,41.412.105,45.324l.067.617H30.351Z" transform="translate(0 60.422)" fill="#595758"/>
      <g id="Group_17" data-name="Group 17" transform="translate(19.082)">
        <path id="Clip_16-2" data-name="Clip 16" d="M0,0H36.119V54.43H0Z" fill="none"/>
        <g id="Group_17-2" data-name="Group 17" clip-path="url(#clip-path-4)">
          <path id="Fill_15" data-name="Fill 15" d="M30.782,3.492c-1.507-1.131-2.544-1.248-3.276-1.025C25.586.476,22.831-.463,17.462.222A19.116,19.116,0,0,0,3.192,9.853C-.351,15.765-.262,22.3.279,28.972c.088,1.135.2,2.305.33,3.493s.277,2.39.445,3.591.352,2.4.565,3.575.437,2.328.677,3.439.509,2.178.791,3.182.568,1.945.878,2.8l.223.629q.121.3.237.591c.077.194.152.381.226.563s.16.351.236.519.151.33.222.489.157.3.231.441c.149.283.277.547.422.768s.262.427.369.6l.306.424.255.35-.233-.366c-.075-.119-.168-.267-.278-.439s-.2-.389-.327-.621-.241-.5-.371-.787q-.1-.218-.2-.451c-.061-.161-.124-.325-.189-.5s-.132-.347-.2-.529-.123-.373-.188-.568-.129-.4-.2-.6l-.182-.635c-.252-.863-.477-1.812-.693-2.82s-.406-2.078-.584-3.189c-.155-1.032-.3-2.1-.425-3.184.029.111.059.23.087.342.156.564.337,1.107.5,1.638.307,1.071.7,2.045,1.022,2.956q.125.339.245.664l.258.625c.169.406.328.793.478,1.154.29.727.583,1.344.816,1.853l.735,1.6s-.207-.6-.569-1.666c-.181-.531-.409-1.17-.623-1.92q-.168-.559-.356-1.187l-.193-.643c-.057-.223-.116-.449-.175-.682-.228-.927-.514-1.922-.708-3-.105-.535-.227-1.08-.324-1.642s-.166-1.141-.252-1.729a36.664,36.664,0,0,1-.23-7.336,33.437,33.437,0,0,1,.535-3.781c.876-.531,1.9-1.215,3.007-2.008-.9,1.262-1.674,2.4-2.22,3.188C8.3,23.486,21.845,18.48,27.081,10.713c.021.056.042.121.062.179l-.164.036s.621,2.466,1.553,6.164c.164.66.337,1.361.515,2.093.082.619.177,1.319.286,2.082.4,2.942.967,6.836,1.118,10.746a40.727,40.727,0,0,1-.152,5.733,25.5,25.5,0,0,1-.969,4.91,18.454,18.454,0,0,1-1.355,3.291c-.192.387-.377.672-.493.873l-.182.307s.073-.1.208-.289.343-.461.569-.83A18.76,18.76,0,0,0,29.736,42.8a26.083,26.083,0,0,0,1.289-4.239c-.032.311-.06.621-.1.928-.128,1.176-.288,2.326-.456,3.438s-.367,2.181-.584,3.189c-.042.2-.085.391-.128.584a20.429,20.429,0,0,1-.915,2.012c-.24.5-.479.867-.625,1.127l-.23.394.25-.383c.159-.251.417-.607.683-1.1.193-.326.406-.711.625-1.145-.112.461-.229.9-.353,1.326l-.182.635c-.067.2-.132.406-.2.6l-.189.568c-.069.182-.136.36-.2.529s-.128.336-.189.5l-.2.451c-.13.289-.241.558-.371.787s-.233.439-.328.621-.2.32-.278.439l-.232.366.255-.35c.083-.115.185-.258.306-.424l.367-.6c.147-.221.274-.485.424-.768.074-.143.151-.289.23-.441s.145-.321.222-.489.155-.342.237-.519l.226-.563q.115-.287.236-.591c.073-.206.147-.415.224-.629.309-.856.6-1.8.878-2.8.223-.8.431-1.631.633-2.494a30.191,30.191,0,0,0,1.088-5.623c0-.01,0-.02,0-.032q.162-1.018.309-2.047c.168-1.2.317-2.4.446-3.591s.242-2.358.329-3.493c.134-1.648.226-3.218.282-4.658a1.845,1.845,0,0,1,2.313-.052c1.036-8.168-.8-17.581-5.054-20.77" transform="translate(0 0)" fill="#473b33"/>
        </g>
      </g>
      <path id="Fill_1-2" data-name="Fill 1" d="M0,2.019C1.216.986,2.116,0,2.887,0,3.966,0,4.764.959,5.851,1.925" transform="translate(33.5 43)" fill="none" stroke="#473b33" stroke-miterlimit="10" stroke-width="0.5"/>
    </g>
  </g>
</svg>
