<svg id="good_icon03" xmlns="http://www.w3.org/2000/svg" xmlns:xlink="http://www.w3.org/1999/xlink" width="100" height="100" viewBox="0 0 100 100">
  <defs>
    <clipPath id="clip-path">
      <rect id="Mask" width="100" height="100" rx="50" fill="#f08181"/>
    </clipPath>
    <clipPath id="clip-path-2">
      <path id="Clip_10" data-name="Clip 10" d="M0,0H34.521V40.309H0Z" transform="translate(0 0)" fill="none"/>
    </clipPath>
    <clipPath id="clip-path-3">
      <path id="Clip_13" data-name="Clip 13" d="M0,0H36.461V48.807H0Z" transform="translate(0 0)" fill="none"/>
    </clipPath>
    <clipPath id="clip-path-4">
      <path id="Clip_20" data-name="Clip 20" d="M0,0H6.158V4.36H0Z" transform="translate(0 0)" fill="none"/>
    </clipPath>
  </defs>
  <rect id="Mask-2" data-name="Mask" width="100" height="100" rx="50" fill="#f08181"/>
  <g id="Group_15" data-name="Group 15" clip-path="url(#clip-path)">
    <g id="Group_86" data-name="Group 86" transform="translate(6 11)">
      <path id="Fill_1" data-name="Fill 1" d="M20.668,26.939a45.461,45.461,0,0,1,18.346,3.789c.916-2.6.316-5.367.875-8.326C42.762,7.214,28.128-2.313,17.234.488a11.7,11.7,0,0,0-1.955.73l-1.643.7C5.647,5.4.338,11.656.011,20.669A33.5,33.5,0,0,0,1.8,31.125a43.723,43.723,0,0,1,18.869-4.186" transform="translate(24.034 7.396)" fill="#6b6466"/>
      <path id="Fill_3" data-name="Fill 3" d="M86.7,31.068c-1.35-8.518-5.85-13-11.924-13s-16.353-1.726-18.377-2.531-1.866-2.914-2.25-4.947C52.848,3.713,53.694,0,53.694,0H35.022s.848,3.713-.45,10.586c-.384,2.033-.225,4.142-2.249,4.947s-12.3,2.531-18.379,2.531S3.37,22.55,2.02,31.068-.341,56.461.108,60.41h88.5c.449-3.949-.563-20.826-1.914-29.342" transform="translate(0.344 53.521)" fill="#edccb7"/>
      <path id="Fill_5" data-name="Fill 5" d="M18.879,8.363A36.173,36.173,0,0,1,18.19,0c-2.908,2.345-6.564,3.892-9.1,3.892S2.909,2.345,0,0C.006.119.025.943.029,1.074,3.485,5.617,7.975,5.593,13.058,7.093a40.763,40.763,0,0,0,5.821,1.27" transform="translate(35.607 55.725)" fill="#e0bca9"/>
      <path id="Fill_7" data-name="Fill 7" d="M38.969,26.2a2.3,2.3,0,0,0-2.4-1c.246-2.455.488-5.025.7-7.6A16.647,16.647,0,0,0,28.519,1.437C25.98.232,24.722.017,20.033,0V0l-.312,0-.313,0V0c-4.689.015-5.947.23-8.487,1.435A16.65,16.65,0,0,0,2.162,17.609c.217,2.573.46,5.143.7,7.6a2.3,2.3,0,0,0-2.394,1c-1.173,1.525.062,5.91,1.291,7.158a4.4,4.4,0,0,0,2.128,1.461c.265,2.391.483,4.311.606,5.514.362,3.513,3.235,6.289,5.751,8.625,2.421,2.248,3.921,4.662,9.16,4.84v.009c.107,0,.208,0,.313,0s.2,0,.312,0V53.8c5.238-.178,6.739-2.592,9.16-4.84,2.515-2.336,5.388-5.112,5.75-8.625.123-1.2.341-3.123.607-5.514a4.39,4.39,0,0,0,2.127-1.461c1.231-1.248,2.465-5.633,1.292-7.158" transform="translate(24.992 6.942)" fill="#edccb7"/>
      <g id="Group_11" data-name="Group 11" transform="translate(27.442 73.967)">
        <path id="Clip_10-2" data-name="Clip 10" d="M0,0H34.521V40.309H0Z" transform="translate(0 0)" fill="none"/>
        <g id="Group_11-2" data-name="Group 11" clip-path="url(#clip-path-2)">
          <path id="Fill_9" data-name="Fill 9" d="M0,0V40.309H34.521V0A54.969,54.969,0,0,1,0,0" transform="translate(0 0)" fill="#fafafa"/>
        </g>
      </g>
      <g id="Group_14" data-name="Group 14" transform="translate(0 65.469)">
        <path id="Clip_13-2" data-name="Clip 13" d="M0,0H36.461V48.807H0Z" transform="translate(0 0)" fill="none"/>
        <g id="Group_14-2" data-name="Group 14" clip-path="url(#clip-path-3)">
          <path id="Fill_12" data-name="Fill 12" d="M34.36,0c-.205,1.469-.447,2.717-1.822,3.264-1.979.787-12.3,2.506-18.25,2.507-6.455,0-10.926,4.844-12.266,13.293C.631,27.846-.335,44.6.109,48.5l.035.307H36.461Z" transform="translate(0 0)" fill="#f7a6a6"/>
        </g>
      </g>
      <path id="Fill_15" data-name="Fill 15" d="M34.436,19.061C33.1,10.612,28.627,5.768,22.17,5.768,16.218,5.766,5.9,4.047,3.92,3.26,2.547,2.713,2.305,1.465,2.1,0L0,48.8H36.316l.035-.306c.444-3.9-.523-20.659-1.915-29.436" transform="translate(52.946 65.473)" fill="#f7a6a6"/>
      <path id="Fill_17" data-name="Fill 17" d="M15.648,0s-.1.1-.261.271c-.083.086-.183.192-.3.313a4.017,4.017,0,0,0-.373.425A10.8,10.8,0,0,0,13.221,3.4a10.778,10.778,0,0,0-1.178,1.7c-.068.129-.132.259-.194.392-.065.094-.135.186-.193.282s-.1.175-.144.265l-.007-.053s-.007.041-.02.106c-.038.072-.074.142-.108.215,0-.028-.008-.057-.012-.082-.061-.412-.049-.76-.071-1s-.019-.385-.019-.385-.015.139-.039.381-.082.594-.086,1.016c-.008.2-.01.412,0,.638-.024.065-.049.129-.069.194l-.009-.028a11.666,11.666,0,0,1-.427-2.123c-.045-.3-.029-.547-.045-.722s-.01-.276-.01-.276-.018.1-.048.272a6.82,6.82,0,0,0-.112.724,10.86,10.86,0,0,0-.068,1.533,6.147,6.147,0,0,1-.162-.738c-.043-.258-.039-.474-.055-.629s-.015-.242-.015-.242-.016.086-.043.238-.081.369-.1.637a6.325,6.325,0,0,0,.04,1.535l-.292-.068L9.31,7.106l-.105-.2s.01.069.029.19l-1.181-.19s.626.4,1.288.828c0,.008,0,.018.005.028-.181.006-.366.015-.553.027-.272.027-.549.068-.827.117C7.944,7.9,7.923,7.89,7.9,7.88a7.742,7.742,0,0,0-.745-.238L6.9,7.567l-.125-.039c-.039,0-.061.059-.091.084l-.34.4-.377.461a12,12,0,0,0-1.112.513c-.054.03-.1.059-.156.09-.09.022-.174.043-.243.055l-.32.074.328-.016h.037a10.893,10.893,0,0,0-1.132.752c-.211.149-.389.3-.55.436s-.3.25-.407.353l-.346.317s.139-.1.383-.272c.119-.086.268-.189.445-.3s.368-.238.593-.357a11.689,11.689,0,0,1,1.551-.74c.13-.049.264-.1.4-.141-.1.153-.2.305-.29.459-.122.209-.235.424-.341.639a6.6,6.6,0,0,0-2.739,3.57A10.453,10.453,0,0,0,.539,16.624c-.112.258-.181.508-.253.725a5.166,5.166,0,0,0-.163.566c-.079.315-.123.5-.123.5s.064-.174.179-.478A5.537,5.537,0,0,1,.4,17.394c.1-.2.191-.442.331-.682a8.858,8.858,0,0,1,.446-.77,9.115,9.115,0,0,1,.569-.806s0,0,0,0c-.021.107-.043.215-.064.318q-.033.323-.064.627a5.974,5.974,0,0,0-.04.893c-.006.033-.011.068-.017.1-.027.155-.023.309-.037.455a5.856,5.856,0,0,0,.008.832,6.19,6.19,0,0,0,.086.692c0,.017.006.033.009.051-.025.142-.05.287-.074.421-.021.11-.035.211-.05.317-.225.512-.424,1.025-.59,1.525-.118.45-.262.871-.336,1.287-.043.205-.085.407-.126.6s-.056.385-.081.566c-.06.362-.084.7-.1.991a7.133,7.133,0,0,0-.036.763c0,.424-.007.664-.007.664s.035-.238.1-.656a6.77,6.77,0,0,1,.136-.744c.059-.287.125-.609.231-.953.049-.172.1-.35.152-.535s.131-.369.2-.561c.124-.389.318-.775.486-1.183.06-.125.128-.25.192-.377a9.366,9.366,0,0,0-.052,1.015c0,.162,0,.319,0,.467s.019.289.027.422a5.854,5.854,0,0,0,.064.678c.024.17.041.3.055.4,0,.01,0,.023-.008.033-.025.113-.051.223-.074.326s-.022.207-.031.3c-.02.188-.035.352-.049.486-.027.266-.043.42-.043.42s.048-.146.13-.4c.041-.127.091-.281.147-.457.03-.088.059-.18.09-.279s.09-.192.139-.3c.1-.2.2-.424.31-.658.02-.041.043-.08.066-.121,0,.009,0,.023,0,.033.023.217.037.34.037.34s.018-.123.052-.34c.013-.073.026-.158.04-.252.044-.069.089-.137.134-.2-.021.209-.033.406-.042.593a23.842,23.842,0,0,0-.984,2.456c-.106.277-.188.537-.253.769s-.127.434-.176.6l-.152.521.236-.488c.074-.156.165-.346.27-.561s.222-.457.371-.713c.2-.376.434-.789.7-1.218a.02.02,0,0,0,0,.009c.02.28.031.44.031.44s.022-.158.057-.438c.007-.058.017-.127.027-.195.447-.711.965-1.461,1.516-2.183a23.407,23.407,0,0,1,2.9-3.045c.085-.082.17-.157.254-.227l.26-.1-.036-.084c.038-.029.079-.062.116-.089.182-.141.338-.264.469-.366l.408-.316-.1-.119a25.625,25.625,0,0,1,2.781-1.69,7.508,7.508,0,0,0-1.316-.146c-.2-.012-.359.01-.476.01l-.181.007.177-.037c.115-.017.275-.068.474-.088a8,8,0,0,1,1.469-.07c.145.008.289.02.432.033.1-.051.208-.107.314-.158a.26.26,0,0,0,.028.029c.076.08.133.143.181.194.073.011.145.021.213.033l.576-.578a6.565,6.565,0,0,0-.4-.629l-.238-.34.318.266c.2.156.436.39.678.625.036.037.068.072.1.109l.488-.535c.161-.061.323-.115.485-.172-.02-.129-.041-.26-.064-.391-.032-.164-.077-.324-.112-.476-.02-.078-.039-.153-.056-.223s-.05-.129-.074-.187c-.092-.239-.155-.395-.155-.395s.1.137.25.346l.124.17c.036.064.073.135.112.2.076.142.165.3.239.451.049.109.1.217.142.322.157-.181.313-.373.461-.576a9.67,9.67,0,0,0,.89-1.543c.112-.219.173-.414.23-.547L16.8,12.2l-.054.219c-.039.137-.076.342-.158.576a9.864,9.864,0,0,1-.7,1.688c-.043.08-.093.154-.138.232l.225-.066c.16-.141.333-.289.5-.442.365-.275.712-.566,1-.746l.47-.31-.4.394c-.246.225-.527.571-.82.9.391-.1.783-.2,1.182-.278.093-.072.187-.142.269-.209.215-.162.379-.316.5-.414s.189-.16.189-.16-.061.065-.168.182-.255.285-.451.474c-.023.022-.052.049-.077.075.706-.139,1.419-.248,2.144-.325l-.016.02a6.692,6.692,0,0,0-.758,1.277,6.6,6.6,0,0,0-.435,1.389A6.5,6.5,0,0,0,19,17.911a4.922,4.922,0,0,0,.019.492,3.569,3.569,0,0,0,.038.375c.03.2.046.323.046.323s0-.118.015-.325a3.1,3.1,0,0,1,.029-.371,4.616,4.616,0,0,1,.068-.474,6.065,6.065,0,0,1,.317-1.141,5.592,5.592,0,0,1,1.312-2c-.031.166-.056.33-.076.49a8.442,8.442,0,0,0-.026,1.485c.009.214.038.41.059.584a4.116,4.116,0,0,0,.07.445c.046.244.073.383.073.383s0-.143-.015-.389c-.007-.125-.008-.275,0-.447s.005-.365.03-.574a8.177,8.177,0,0,1,.238-1.407,7.9,7.9,0,0,1,.466-1.238c.081-.055.161-.105.239-.148.061-.041.121-.075.18-.108.271-.008.543-.021.818-.021a24.689,24.689,0,0,1,13.172,3.816C38.4,20.333,40.563,22.9,40.563,22.9s0-.085,0-.232l.617.607.006.018c.016.068.031.139.047.2.016.117.031.229.047.332.029.211.054.4.076.547.041.305.066.479.066.479s.007-.176.022-.481c0-.06.006-.131.01-.2.127.435.2.682.2.682l-.187-.93c0-.037,0-.07,0-.108,0-.078.008-.162.012-.246l1.42,1.4c.082.361.132.578.132.578s-.017-.182-.044-.49l.347.341c-.046.245-.074.379-.074.379l.1-.351.59.58-.444-1.1c.022-.088.045-.177.069-.275.091.283.144.455.144.455s-.027-.281-.083-.729l.017-.076c.175.149.347.285.513.41q.012.042.024.081.02.151.039.294c.03.239.059.461.086.668s.025.4.037.569c.037.689.058,1.084.058,1.084s.011-.4.032-1.086c0-.174.017-.365.008-.574s-.02-.436-.032-.676c0-.061-.005-.125-.008-.186.083.057.164.112.242.158a6.515,6.515,0,0,0,.657.385l.251.139-.218-.188a6.236,6.236,0,0,1-.554-.5c-.129-.122-.263-.264-.4-.416,0-.055,0-.106-.007-.161q-.048-.4-.1-.849c-.037-.375-.1-.776-.174-1.184a14.562,14.562,0,0,1,.994,1.906c.064.153.125.3.184.434s.1.277.139.4a6.572,6.572,0,0,1,.209.662c.1.373.156.586.156.586s-.024-.218-.069-.6a6.413,6.413,0,0,0-.111-.693c-.026-.133-.053-.276-.081-.426s-.079-.3-.12-.465a12.724,12.724,0,0,0-.442-1.375c.178.31.352.594.513.842.212.347.425.613.556.808l.214.3s-.059-.121-.164-.332-.263-.508-.417-.879a19.02,19.02,0,0,1-.962-2.762,17.5,17.5,0,0,1-.472-2.843,6.767,6.767,0,0,1-.039-.7c.074.3.134.579.195.838a4.3,4.3,0,0,1,.123.748c.026.227.049.422.067.584.038.326.058.512.058.512s0-.187,0-.514c0-.164,0-.363,0-.591a4.515,4.515,0,0,0-.036-.768c-.029-.246-.057-.518-.092-.8,0,0,0,0,0,0,.138.311.267.641.381.977a10.1,10.1,0,0,1,.447,2.558c.027.36-.007.658-.006.871s-.008.332-.008.332.025-.117.068-.326.123-.5.163-.867a11.013,11.013,0,0,0,.092-1.605l.062.111c.1.219.186.424.266.607.318.739.5,1.16.5,1.16s-.152-.433-.417-1.193c-.069-.189-.136-.4-.226-.629-.062-.137-.129-.281-.2-.43-.013-.244-.034-.49-.068-.738-.01-.07-.022-.138-.033-.209.031.057.066.115.1.17.794,1.4,1.307,2.34,1.307,2.34s-.4-1-1.017-2.482c-.263-.631-.575-1.352-.927-2.114-.051-.135-.1-.263-.155-.383a8.353,8.353,0,0,0-.39-.841l-.159-.317-.035.024c-.224-.438-.462-.881-.713-1.321.475.282.924.545,1.306.731l.939.488-.819-.668c-.5-.385-1.111-.971-1.731-1.527-.279-.285-.558-.563-.819-.828-.035-.051-.071-.1-.108-.151.594.272,1.066.489,1.28.584l.013.032.113.257s-.031-.093-.092-.267c0,0,0,0,0-.006l.094.043-.106-.078-.1-.282c-.043-.126-.121-.259-.193-.417A6.508,6.508,0,0,0,41.5,8.524a8.925,8.925,0,0,0-1.259-.834c-.251-.306-.5-.6-.712-.88a5.111,5.111,0,0,0,.654.066l.547.029-.49-.238a5.268,5.268,0,0,1-.6-.326c.247-.012.482-.026.691-.047l1.089-.08-1.082-.135c-.421-.041-.929-.129-1.464-.226l-.012-.006c-.211-.315-.342-.508-.342-.508l-.2.148c-.1-.066-.186-.125-.263-.175-.067-.077-.128-.159-.2-.233-.017-.019-.036-.037-.053-.055-.3-.406-.481-.656-.481-.656l-.092.084a11.2,11.2,0,0,0-2.6-1.828,10.172,10.172,0,0,0-2.929-.943A4.21,4.21,0,0,0,29.688,1a7.476,7.476,0,0,0-1.86-.769c-.2-.043-.391-.084-.58-.127s-.381-.044-.565-.068" transform="translate(21.806 0.818)" fill="#5b4f52"/>
      <g id="Group_21" data-name="Group 21" transform="translate(35.662)">
        <path id="Clip_20-2" data-name="Clip 20" d="M0,0H6.158V4.36H0Z" transform="translate(0 0)" fill="none"/>
        <g id="Group_21-2" data-name="Group 21" clip-path="url(#clip-path-4)">
          <path id="Fill_19" data-name="Fill 19" d="M6.158,0A4.808,4.808,0,0,0,4.827.979c-.084.083-.159.175-.235.265a4.449,4.449,0,0,0-.515.359,7.729,7.729,0,0,0-1.24,1.308c-.03.039-.055.08-.082.117l-.207.055a8.669,8.669,0,0,1,.6-.818,7.323,7.323,0,0,1,.511-.549l.2-.208-.238.161c-.147.109-.382.236-.622.441A9.392,9.392,0,0,0,1.7,3.364a3.875,3.875,0,0,0-.445.2c-.119.058-.245.113-.366.183l-.367.223A6.4,6.4,0,0,0,0,4.36c.073-.261.159-.519.253-.767a1.848,1.848,0,0,1,.124-.164C.44,3.362.5,3.3.554,3.239c.113-.117.211-.222.292-.308.162-.172.254-.272.254-.272l-.293.227-.34.261L.411,3.19a9.756,9.756,0,0,1,.623-1.238,3.722,3.722,0,0,1,.3-.47c.094-.138.176-.255.245-.355L1.792.818" transform="translate(0 0)" fill="#5b4f52"/>
        </g>
      </g>
      <path id="Fill_22" data-name="Fill 22" d="M1.306.3A3.4,3.4,0,0,0,.792.7,2.348,2.348,0,0,0,0,.6" transform="translate(41.565 0.221)" fill="#5b4f52"/>
      <path id="Fill_24" data-name="Fill 24" d="M1.855.715c-.146.014-.286.025-.416.039-.028,0-.05.006-.077.008A1.418,1.418,0,0,0,0,.258" transform="translate(45.131 0.115)" fill="#5b4f52"/>
      <path id="Fill_26" data-name="Fill 26" d="M.091,1.646c.066-.2.14-.393.22-.588A6.572,6.572,0,0,1,1.088.365c.172-.129.35-.25.527-.365,0,.021-.009.042-.015.064A6.027,6.027,0,0,0,.309,1.417,5.663,5.663,0,0,0,0,1.947c.03-.1.061-.2.091-.3" transform="translate(23.954 14.089)" fill="#5b4f52"/>
      <path id="Fill_28" data-name="Fill 28" d="M.772,1.76c-.043.111-.085.225-.127.332A8.034,8.034,0,0,0,.363,2.9c-.048.2-.094.4-.137.58,0-.08,0-.172,0-.28a5.841,5.841,0,0,1,.039-.673C.28,2.4.292,2.258.3,2.114s.047-.3.071-.452A10.326,10.326,0,0,1,.775,0C.746.637.746,1.242.772,1.76" transform="translate(23.423 21.424)" fill="#5b4f52"/>
      <path id="Fill_30" data-name="Fill 30" d="M.424,2.563c-.139.43-.3.83-.389,1.232-.009.041-.019.08-.029.122,0-.1-.008-.208,0-.323a4.163,4.163,0,0,1,.082-.633c.03-.136.044-.281.089-.421S.26,2.256.3,2.112A5.159,5.159,0,0,1,1.24.506,4.886,4.886,0,0,1,1.772,0a.11.11,0,0,1,0,.018.316.316,0,0,1-.022.029A12.349,12.349,0,0,0,.424,2.563" transform="translate(23.569 15.42)" fill="#5b4f52"/>
      <path id="Fill_32" data-name="Fill 32" d="M.772.318a9.721,9.721,0,0,0-.44,1.021c-.056.151-.109.3-.157.454-.01.015-.022.029-.032.045.079-.254.164-.512.254-.764C.54.7.7.339.857,0,.827.107.8.213.772.318" transform="translate(24.858 19.868)" fill="#5b4f52"/>
      <path id="Fill_34" data-name="Fill 34" d="M.673.451C.534.539.4.632.264.729A5.823,5.823,0,0,1,.737.271C.715.333.692.391.673.451" transform="translate(25.233 12.438)" fill="#5b4f52"/>
      <path id="Fill_36" data-name="Fill 36" d="M.214.518A5.715,5.715,0,0,1,.719.25L1.2.073c-.061.08-.122.16-.175.242S.926.484.881.567A8.24,8.24,0,0,0,0,.927C.068.789.141.655.214.518" transform="translate(26.561 11.603)" fill="#5b4f52"/>
      <path id="Fill_38" data-name="Fill 38" d="M.59.479Q.452.632.314.805C.432.6.555.4.686.194.65.3.617.389.59.479" transform="translate(26.491 17.523)" fill="#5b4f52"/>
      <path id="Fill_40" data-name="Fill 40" d="M.7.336C.639.4.573.461.5.531S.333.7.245.8C.305.676.37.553.442.42.548.344.651.275.755.2.737.248.72.293.7.336" transform="translate(27.086 16.926)" fill="#5b4f52"/>
      <path id="Fill_42" data-name="Fill 42" d="M.354.655C.239.7.12.728,0,.765.143.586.285.41.43.235c.337.043.691.1,1.046.176A5.714,5.714,0,0,0,.354.655" transform="translate(27.768 9.831)" fill="#5b4f52"/>
      <path id="Fill_44" data-name="Fill 44" d="M.359.51C.431.5.5.491.578.484L.614.5A.165.165,0,0,0,.641.516L.359.51" transform="translate(28.704 9.122)" fill="#5b4f52"/>
      <path id="Fill_46" data-name="Fill 46" d="M.682.47C.553.5.414.536.275.572H.264C.3.55.343.527.384.507.44.479.5.454.558.428L.735.456A.536.536,0,0,0,.682.47" transform="translate(29.949 11.29)" fill="#5b4f52"/>
      <path id="Fill_48" data-name="Fill 48" d="M.707.234C.59.4.479.56.382.728.313.855.247.98.184,1.105.186.955.193.8.206.64A4.122,4.122,0,0,1,.572.22C.649.142.734.072.817,0,.776.082.743.158.707.234" transform="translate(35.176 5.444)" fill="#5b4f52"/>
      <path id="Fill_50" data-name="Fill 50" d="M.52.529C.488.539.456.547.421.555A.2.2,0,0,0,.445.536C.488.5.534.475.578.444.558.472.539.5.52.529" transform="translate(36.313 3.521)" fill="#5b4f52"/>
      <path id="Fill_52" data-name="Fill 52" d="M.543.28C.623.242.7.208.771.176.624.386.481.595.347.808L.228.823C.329.636.435.454.543.28" transform="translate(37.544 2.997)" fill="#5b4f52"/>
      <path id="Fill_54" data-name="Fill 54" d="M1.4.523,1.335.644q-.4.424-.775.883c-.2.1-.39.205-.56.3a.067.067,0,0,0,.006-.012c.083-.149.172-.3.26-.445.088-.129.181-.256.282-.379A5.356,5.356,0,0,1,1.69,0C1.583.183,1.485.359,1.4.523" transform="translate(37.15 4.257)" fill="#5b4f52"/>
      <path id="Fill_56" data-name="Fill 56" d="M.535.563C.495.576.454.587.412.6.44.568.468.531.5.5S.557.431.589.4C.568.456.553.507.535.563" transform="translate(38.537 2.85)" fill="#5b4f52"/>
      <path id="Fill_58" data-name="Fill 58" d="M.773.672c-.256.193-.514.393-.773.6.029-.074.06-.146.088-.222C.236.731.388.412.537.1A1.673,1.673,0,0,1,1.066,0c.037,0,.07.008.106.01a7.1,7.1,0,0,0-.4.662" transform="translate(40.456 1.772)" fill="#5b4f52"/>
      <path id="Fill_60" data-name="Fill 60" d="M1.258,1.021C1.216,1.009,1.173,1,1.133.99A8.2,8.2,0,0,0,.465.468L.418.433C.289.292.149.148,0,0,.026.015.047.029.071.044.239.158.418.265.59.388a8.527,8.527,0,0,1,.682.6l-.027.023.013.014" transform="translate(56.87 5.109)" fill="#5b4f52"/>
      <path id="Fill_62" data-name="Fill 62" d="M.232.146a6.286,6.286,0,0,1,1.94,1.986c.083.149.171.276.224.4.037.086.068.16.1.228L.578,1.337C.4,1.119.23.906.052.7c.349.25.678.478.971.652.559.355.931.594.931.594l-.8-.762C.81.871.415.445,0,0,.078.048.158.095.232.146" transform="translate(62.886 9.458)" fill="#5b4f52"/>
      <path id="Fill_64" data-name="Fill 64" d="M.4.772C.407.614.411.431.416.228c.046.1.093.2.136.3C.567.567.582.6.6.643Z" transform="translate(61.972 22.324)" fill="#5b4f52"/>
      <path id="Fill_66" data-name="Fill 66" d="M.589.641.509.7C.476.567.441.433.405.3.468.377.534.454.6.531c0,.039,0,.074-.006.109" transform="translate(62.197 18.979)" fill="#5b4f52"/>
      <path id="Fill_68" data-name="Fill 68" d="M.488.521c0-.014,0-.027.007-.043A.144.144,0,0,1,.512.5Z" transform="translate(62.33 19.073)" fill="#5b4f52"/>
      <path id="Fill_70" data-name="Fill 70" d="M.5.506S.5.5.5.494L.5.5Z" transform="translate(62.699 22.043)" fill="#5b4f52"/>
      <path id="Fill_72" data-name="Fill 72" d="M.38,1.027C.326.689.266.345.2,0a3.289,3.289,0,0,1,.24.31C.554.465.678.644.8.838Z" transform="translate(62.663 20.356)" fill="#5b4f52"/>
      <path id="Fill_74" data-name="Fill 74" d="M.688,1.057.262,0Q.438.171.617.328V.334C.661.463.7.582.738.692.721.821.706.944.688,1.057" transform="translate(64.574 24.529)" fill="#5b4f52"/>
      <path id="Fill_76" data-name="Fill 76" d="M.633.882c0,.033,0,.061-.007.094C.581.914.539.85.5.785.454.543.407.287.354.023.442.214.536.4.608.58c.013.035.025.069.039.1,0,.064-.007.135-.013.2" transform="translate(64.79 23.272)" fill="#5b4f52"/>
      <path id="Fill_78" data-name="Fill 78" d="M.931,2.092c-.024-.065-.049-.129-.07-.2-.09-.241-.174-.5-.279-.752S.351.633.231.363C.176.244.12.123.065,0,.245.235.423.469.6.7q.189.581.34,1.133c0,.086,0,.168,0,.254" transform="translate(64.535 21.176)" fill="#5b4f52"/>
      <path id="Fill_80" data-name="Fill 80" d="M.448.477C.454.447.459.415.464.384.471.405.481.431.489.451.51.508.531.562.552.617.516.57.483.525.448.477" transform="translate(65.139 24.011)" fill="#5b4f52"/>
      <path id="Fill_82" data-name="Fill 82" d="M.468.4C.47.389.472.38.474.368.493.456.515.547.531.632L.468.4" transform="translate(65.209 23.517)" fill="#5b4f52"/>
      <path id="Fill_84" data-name="Fill 84" d="M.484.7c0-.01,0-.021,0-.031C.458.545.427.424.4.3c.038.051.075.1.111.155C.543.535.572.612.6.688Z" transform="translate(65.239 16.655)" fill="#5b4f52"/>
    </g>
    <path id="Fill_1-2" data-name="Fill 1" d="M0-2.019C1.216-.986,2.116,0,2.887,0,3.966,0,4.764-.959,5.851-1.925" transform="translate(47 64.019)" fill="none" stroke="#5b4f52" stroke-miterlimit="10" stroke-width="0.5"/>
  </g>
</svg>
